<svg width="416" height="149" viewBox="0 0 416 149" fill="none" xmlns="http://www.w3.org/2000/svg">
<circle cx="74.5" cy="74.5" r="74.5" fill="#FAD957"/>
<path d="M400.826 124.094C397.267 124.094 394.134 123.398 391.426 122.005C388.757 120.612 386.687 118.717 385.217 116.319C383.747 113.882 383.012 111.116 383.012 108.021C383.012 104.888 383.728 102.122 385.159 99.7235C386.629 97.2865 388.621 95.391 391.136 94.0371C393.65 92.6445 396.494 91.9482 399.666 91.9482C402.721 91.9482 405.468 92.6059 407.905 93.9211C410.381 95.1976 412.334 97.0544 413.765 99.4914C415.197 101.89 415.912 104.772 415.912 108.137C415.912 108.485 415.893 108.891 415.854 109.356C415.816 109.781 415.777 110.187 415.738 110.574H390.382V105.294H410.98L407.499 106.861C407.499 105.236 407.17 103.824 406.512 102.625C405.855 101.426 404.946 100.497 403.785 99.8396C402.625 99.1433 401.271 98.7951 399.724 98.7951C398.176 98.7951 396.803 99.1433 395.604 99.8396C394.443 100.497 393.534 101.445 392.877 102.683C392.219 103.882 391.89 105.313 391.89 106.977V108.369C391.89 110.071 392.258 111.58 392.993 112.895C393.766 114.172 394.83 115.158 396.184 115.854C397.577 116.512 399.201 116.841 401.058 116.841C402.721 116.841 404.172 116.589 405.41 116.086C406.686 115.584 407.847 114.829 408.891 113.824L413.707 119.046C412.276 120.67 410.477 121.928 408.311 122.817C406.145 123.668 403.65 124.094 400.826 124.094Z" fill="#161616"/>
<path d="M364.221 124.094C360.662 124.094 357.528 123.398 354.821 122.005C352.151 120.612 350.082 118.717 348.612 116.319C347.142 113.882 346.407 111.116 346.407 108.021C346.407 104.888 347.123 102.122 348.554 99.7235C350.024 97.2865 352.016 95.391 354.53 94.0371C357.045 92.6445 359.888 91.9482 363.06 91.9482C366.116 91.9482 368.862 92.6059 371.3 93.9211C373.775 95.1976 375.729 97.0544 377.16 99.4914C378.591 101.89 379.307 104.772 379.307 108.137C379.307 108.485 379.288 108.891 379.249 109.356C379.21 109.781 379.172 110.187 379.133 110.574H353.776V105.294H374.375L370.893 106.861C370.893 105.236 370.565 103.824 369.907 102.625C369.249 101.426 368.34 100.497 367.18 99.8396C366.019 99.1433 364.665 98.7951 363.118 98.7951C361.571 98.7951 360.197 99.1433 358.998 99.8396C357.838 100.497 356.929 101.445 356.271 102.683C355.614 103.882 355.285 105.313 355.285 106.977V108.369C355.285 110.071 355.652 111.58 356.387 112.895C357.161 114.172 358.225 115.158 359.579 115.854C360.971 116.512 362.596 116.841 364.453 116.841C366.116 116.841 367.567 116.589 368.804 116.086C370.081 115.584 371.242 114.829 372.286 113.824L377.102 119.046C375.671 120.67 373.872 121.928 371.706 122.817C369.539 123.668 367.044 124.094 364.221 124.094Z" fill="#161616"/>
<path d="M321.957 124.094C319.017 124.094 316.367 123.436 314.007 122.121C311.647 120.767 309.771 118.891 308.379 116.492C307.025 114.094 306.348 111.27 306.348 108.021C306.348 104.733 307.025 101.89 308.379 99.4912C309.771 97.0929 311.647 95.2361 314.007 93.9208C316.367 92.6056 319.017 91.948 321.957 91.948C324.587 91.948 326.889 92.5283 328.861 93.6887C330.834 94.8492 332.362 96.6093 333.445 98.969C334.528 101.329 335.07 104.346 335.07 108.021C335.07 111.657 334.548 114.674 333.503 117.073C332.459 119.432 330.95 121.192 328.977 122.353C327.043 123.513 324.703 124.094 321.957 124.094ZM323.523 116.666C324.993 116.666 326.328 116.318 327.527 115.622C328.726 114.926 329.674 113.939 330.37 112.663C331.105 111.348 331.473 109.8 331.473 108.021C331.473 106.203 331.105 104.655 330.37 103.379C329.674 102.102 328.726 101.116 327.527 100.42C326.328 99.7233 324.993 99.3752 323.523 99.3752C322.015 99.3752 320.661 99.7233 319.461 100.42C318.262 101.116 317.295 102.102 316.56 103.379C315.864 104.655 315.516 106.203 315.516 108.021C315.516 109.8 315.864 111.348 316.56 112.663C317.295 113.939 318.262 114.926 319.461 115.622C320.661 116.318 322.015 116.666 323.523 116.666ZM331.705 123.629V117.247L331.879 107.963L331.298 98.7369V80.5752H340.35V123.629H331.705Z" fill="#161616"/>
<path d="M287.182 91.9482C289.657 91.9482 291.862 92.4511 293.796 93.4569C295.769 94.424 297.317 95.9326 298.438 97.9828C299.56 99.9943 300.121 102.586 300.121 105.758V123.63H291.069V107.151C291.069 104.636 290.508 102.779 289.386 101.58C288.303 100.381 286.756 99.7816 284.745 99.7816C283.313 99.7816 282.017 100.091 280.857 100.71C279.735 101.29 278.845 102.199 278.188 103.437C277.569 104.675 277.259 106.261 277.259 108.195V123.63H268.208V92.4124H276.853V101.058L275.228 98.447C276.35 96.3581 277.956 94.7528 280.045 93.631C282.133 92.5091 284.512 91.9482 287.182 91.9482Z" fill="#161616"/>
<path d="M251.544 123.63V117.537L250.963 116.203V105.294C250.963 103.36 250.364 101.851 249.165 100.768C248.004 99.6848 246.205 99.1433 243.768 99.1433C242.105 99.1433 240.461 99.4141 238.836 99.9556C237.25 100.459 235.896 101.155 234.775 102.045L231.525 95.7198C233.227 94.5207 235.277 93.5923 237.676 92.9347C240.074 92.277 242.511 91.9482 244.987 91.9482C249.745 91.9482 253.439 93.0701 256.07 95.3137C258.7 97.5573 260.015 101.058 260.015 105.816V123.63H251.544ZM242.028 124.094C239.591 124.094 237.502 123.688 235.761 122.875C234.02 122.024 232.686 120.883 231.757 119.452C230.829 118.021 230.365 116.415 230.365 114.636C230.365 112.779 230.81 111.154 231.699 109.762C232.628 108.369 234.078 107.286 236.051 106.512C238.024 105.7 240.596 105.294 243.768 105.294H252.066V110.574H244.755C242.627 110.574 241.157 110.922 240.345 111.619C239.571 112.315 239.184 113.185 239.184 114.23C239.184 115.39 239.629 116.319 240.519 117.015C241.447 117.672 242.705 118.001 244.291 118.001C245.799 118.001 247.153 117.653 248.352 116.957C249.552 116.222 250.422 115.158 250.963 113.765L252.356 117.943C251.698 119.955 250.499 121.483 248.759 122.527C247.018 123.572 244.774 124.094 242.028 124.094Z" fill="#161616"/>
<path d="M219.945 124.094C216.27 124.094 213.408 123.166 211.358 121.309C209.307 119.414 208.282 116.609 208.282 112.895V85.5078H217.334V112.779C217.334 114.095 217.682 115.12 218.379 115.855C219.075 116.551 220.023 116.899 221.222 116.899C222.653 116.899 223.872 116.512 224.877 115.739L227.314 122.121C226.386 122.779 225.264 123.282 223.949 123.63C222.672 123.939 221.338 124.094 219.945 124.094ZM203.466 100.072V93.109H225.109V100.072H203.466Z" fill="#161616"/>
<path d="M184.162 124.326C180.912 124.326 177.798 123.901 174.82 123.05C171.841 122.16 169.443 121.019 167.625 119.626L170.816 112.547C172.557 113.785 174.607 114.81 176.967 115.623C179.365 116.396 181.783 116.783 184.22 116.783C186.077 116.783 187.566 116.609 188.688 116.261C189.848 115.874 190.699 115.352 191.241 114.694C191.782 114.037 192.053 113.282 192.053 112.431C192.053 111.348 191.628 110.497 190.777 109.878C189.926 109.22 188.804 108.698 187.411 108.311C186.019 107.886 184.471 107.499 182.769 107.151C181.106 106.764 179.423 106.3 177.721 105.758C176.058 105.217 174.53 104.52 173.137 103.669C171.745 102.818 170.603 101.697 169.714 100.304C168.863 98.9114 168.437 97.132 168.437 94.9658C168.437 92.6448 169.056 90.5366 170.294 88.6411C171.57 86.7069 173.466 85.1789 175.98 84.0571C178.533 82.8967 181.725 82.3164 185.554 82.3164C188.107 82.3164 190.622 82.6259 193.098 83.2448C195.573 83.825 197.759 84.7148 199.654 85.9139L196.753 93.051C194.858 91.9678 192.962 91.1748 191.067 90.6719C189.171 90.1304 187.314 89.8596 185.496 89.8596C183.678 89.8596 182.189 90.0724 181.028 90.4979C179.868 90.9234 179.036 91.4843 178.533 92.1806C178.03 92.8382 177.779 93.6119 177.779 94.5016C177.779 95.546 178.205 96.397 179.056 97.0546C179.907 97.6736 181.028 98.1765 182.421 98.5633C183.814 98.9501 185.342 99.3369 187.005 99.7238C188.707 100.111 190.39 100.555 192.053 101.058C193.755 101.561 195.302 102.238 196.695 103.089C198.088 103.94 199.209 105.062 200.06 106.455C200.95 107.847 201.395 109.607 201.395 111.735C201.395 114.017 200.757 116.106 199.48 118.002C198.204 119.897 196.289 121.425 193.736 122.585C191.221 123.746 188.03 124.326 184.162 124.326Z" fill="#161616"/>
<path d="M335.656 23.0615V65.9997H330.375V23.0615H335.656Z" fill="#161616"/>
<path d="M289.191 49.9856C289.191 46.7362 289.848 43.893 291.164 41.456C292.479 38.9802 294.277 37.0654 296.56 35.7115C298.881 34.3576 301.453 33.6807 304.277 33.6807C307.062 33.6807 309.48 34.2803 311.53 35.4794C313.58 36.6786 315.108 38.1872 316.114 40.0053V34.2029H321.452V66.0004H316.114V60.0818C315.07 61.9386 313.503 63.486 311.414 64.7238C309.364 65.923 306.966 66.5226 304.219 66.5226C301.395 66.5226 298.842 65.8263 296.56 64.4337C294.277 63.0411 292.479 61.0876 291.164 58.5732C289.848 56.0588 289.191 53.1963 289.191 49.9856ZM316.114 50.0436C316.114 47.6452 315.631 45.5564 314.663 43.7769C313.696 41.9975 312.381 40.6436 310.718 39.7152C309.093 38.7481 307.294 38.2646 305.322 38.2646C303.349 38.2646 301.55 38.7288 299.925 39.6572C298.301 40.5856 297.005 41.9395 296.038 43.7189C295.07 45.4983 294.587 47.5872 294.587 49.9856C294.587 52.4226 295.07 54.5502 296.038 56.3683C297.005 58.1477 298.301 59.5209 299.925 60.488C301.55 61.4164 303.349 61.8806 305.322 61.8806C307.294 61.8806 309.093 61.4164 310.718 60.488C312.381 59.5209 313.696 58.1477 314.663 56.3683C315.631 54.5502 316.114 52.4419 316.114 50.0436Z" fill="#161616"/>
<path d="M279.611 29.0388C278.605 29.0388 277.754 28.6907 277.058 27.9944C276.362 27.2981 276.014 26.447 276.014 25.4413C276.014 24.4355 276.362 23.5845 277.058 22.8882C277.754 22.1919 278.605 21.8438 279.611 21.8438C280.578 21.8438 281.391 22.1919 282.048 22.8882C282.745 23.5845 283.093 24.4355 283.093 25.4413C283.093 26.447 282.745 27.2981 282.048 27.9944C281.391 28.6907 280.578 29.0388 279.611 29.0388ZM282.164 34.203V66.0005H276.884V34.203H282.164Z" fill="#161616"/>
<path d="M239.666 50.0436C239.666 46.7555 240.323 43.893 241.639 41.456C242.954 38.9802 244.772 37.0654 247.093 35.7115C249.453 34.3576 252.141 33.6807 255.158 33.6807C259.065 33.6807 262.276 34.6284 264.79 36.5239C267.343 38.4193 269.026 41.0498 269.839 44.4152H264.152C263.611 42.4811 262.547 40.9531 260.961 39.8313C259.413 38.7095 257.479 38.1486 255.158 38.1486C252.141 38.1486 249.704 39.193 247.847 41.2819C245.99 43.3321 245.062 46.2527 245.062 50.0436C245.062 53.8732 245.99 56.8325 247.847 58.9214C249.704 61.0102 252.141 62.0547 255.158 62.0547C257.479 62.0547 259.413 61.5131 260.961 60.43C262.508 59.3469 263.572 57.7995 264.152 55.788H269.839C268.988 59.0374 267.285 61.6485 264.732 63.6213C262.179 65.5555 258.988 66.5226 255.158 66.5226C252.141 66.5226 249.453 65.8456 247.093 64.4917C244.772 63.1378 242.954 61.223 241.639 58.7473C240.323 56.2716 239.666 53.3703 239.666 50.0436Z" fill="#161616"/>
<path d="M218.391 66.5226C215.413 66.5226 212.705 65.8456 210.268 64.4917C207.869 63.1378 205.974 61.223 204.581 58.7473C203.227 56.2329 202.551 53.3317 202.551 50.0436C202.551 46.7942 203.247 43.9317 204.639 41.456C206.071 38.9416 208.005 37.0267 210.442 35.7115C212.879 34.3576 215.606 33.6807 218.623 33.6807C221.641 33.6807 224.368 34.3576 226.805 35.7115C229.242 37.0267 231.157 38.9222 232.549 41.3979C233.981 43.8736 234.696 46.7555 234.696 50.0436C234.696 53.3317 233.961 56.2329 232.491 58.7473C231.06 61.223 229.106 63.1378 226.631 64.4917C224.155 65.8456 221.409 66.5226 218.391 66.5226ZM218.391 61.8806C220.287 61.8806 222.066 61.4357 223.73 60.546C225.393 59.6563 226.727 58.3218 227.733 56.5423C228.778 54.7629 229.3 52.5967 229.3 50.0436C229.3 47.4905 228.797 45.3243 227.791 43.5448C226.785 41.7654 225.47 40.4502 223.846 39.5992C222.221 38.7095 220.461 38.2646 218.565 38.2646C216.631 38.2646 214.852 38.7095 213.227 39.5992C211.641 40.4502 210.365 41.7654 209.397 43.5448C208.43 45.3243 207.947 47.4905 207.947 50.0436C207.947 52.6354 208.411 54.821 209.339 56.6004C210.306 58.3798 211.583 59.7144 213.169 60.6041C214.755 61.4551 216.496 61.8806 218.391 61.8806Z" fill="#161616"/>
<path d="M183.291 66.4057C180.622 66.4057 178.224 65.9415 176.096 65.0131C174.007 64.046 172.363 62.7308 171.164 61.0674C169.965 59.3654 169.346 57.4119 169.307 55.207H174.936C175.129 57.1024 175.903 58.7078 177.257 60.023C178.649 61.2995 180.661 61.9378 183.291 61.9378C185.806 61.9378 187.779 61.3189 189.21 60.081C190.68 58.8045 191.415 57.1798 191.415 55.207C191.415 53.6596 190.989 52.4024 190.138 51.4354C189.287 50.4683 188.223 49.7333 186.947 49.2304C185.67 48.7275 183.949 48.186 181.783 47.6057C179.114 46.9094 176.967 46.2132 175.342 45.5169C173.756 44.8206 172.383 43.7374 171.222 42.2675C170.1 40.7588 169.539 38.7473 169.539 36.2329C169.539 34.028 170.1 32.0745 171.222 30.3724C172.344 28.6704 173.911 27.3552 175.922 26.4268C177.972 25.4984 180.313 25.0342 182.943 25.0342C186.734 25.0342 189.829 25.9819 192.227 27.8774C194.664 29.7729 196.037 32.2873 196.347 35.4206H190.544C190.351 33.8733 189.539 32.5193 188.107 31.3589C186.676 30.1597 184.781 29.5601 182.421 29.5601C180.216 29.5601 178.417 30.1403 177.025 31.3008C175.632 32.4226 174.936 34.0086 174.936 36.0588C174.936 37.5288 175.342 38.728 176.154 39.6564C177.005 40.5848 178.03 41.3004 179.23 41.8033C180.467 42.2675 182.189 42.809 184.394 43.428C187.063 44.1629 189.21 44.8979 190.834 45.6329C192.459 46.3292 193.852 47.4317 195.012 48.9403C196.173 50.4103 196.753 52.4218 196.753 54.9749C196.753 56.9477 196.231 58.8045 195.186 60.5452C194.142 62.286 192.595 63.6979 190.544 64.781C188.494 65.8641 186.076 66.4057 183.291 66.4057Z" fill="#161616"/>
<path d="M125 140V143H24V140H125ZM130 135V14C130 11.2386 127.761 9 125 9H24C21.2386 9 19 11.2386 19 14V135C19 137.761 21.2386 140 24 140V143L23.5879 142.989C19.3611 142.775 16 139.28 16 135V14C16 9.58172 19.5817 6 24 6H125C129.418 6 133 9.58172 133 14V135C133 139.28 129.639 142.775 125.412 142.989L125 143V140C127.761 140 130 137.761 130 135Z" fill="#161616"/>
<g clip-path="url(#clip0_77_3)">
<path d="M62 27H26V63H62V27ZM56 57H32V33H56V57Z" fill="#161616"/>
<path d="M38 39H50V51H38V39ZM26 123H62V87H26V123ZM32 93H56V117H32V93Z" fill="#161616"/>
<path d="M38 99H50V111H38V99ZM86 27V63H122V27H86Z" fill="#161616"/>
<path d="M98 39H110V51H98V39ZM38 69H26V81H44V75H38V69ZM68 81H80V93H68V81ZM44 69H56V75H44V69ZM80 99H68V105H74V111H80V105V99ZM62 69V75H56V81H68V69H62ZM74 51H80V63H74V51ZM80 75V81H92V69H74V75H80ZM68 63H74V69H68V63ZM80 111H92V123H80V111ZM68 111H74V123H68V111ZM80 93H86V99H80V93ZM80 45V33H74V27H68V51H74V45H80ZM98 111H104V123H98V111ZM98 99H110V105H98V99ZM92 105H98V111H92V105ZM86 99H92V105H86V99ZM110 87V93H116V99H122V87H116H110ZM116 105H110V123H122V111H116V105ZM86 87V93H104V81H92V87H86ZM98 69V75H110V81H122V69H110H98Z" fill="#161616"/>
<g clip-path="url(#clip1_77_3)">
<path d="M96.9187 41.1818L93.1005 45L96.9187 48.8181C99.0251 46.7118 99.0251 43.2881 96.9187 41.1818ZM102.01 36.0908L99.4642 38.6363C102.977 42.149 102.977 47.8508 99.4642 51.3636L102.01 53.909C106.929 48.99 106.929 41.01 102.01 36.0908Z" fill="#FAD957"/>
<path d="M107.168 31L104.622 33.5455C110.948 39.871 110.948 50.1291 104.622 56.4546L107.168 59.0001C114.9 51.2682 114.9 38.7318 107.168 31Z" fill="#FAD957"/>
</g>
</g>
<path d="M10 144C10 142.895 10.8954 142 12 142H137C138.105 142 139 142.895 139 144V147C139 148.105 138.105 149 137 149H12C10.8954 149 10 148.105 10 147V144Z" fill="#161616"/>
<path d="M13 146H136V145H13V146ZM139 147C139 148.105 138.105 149 137 149H12C10.9643 149 10.113 148.213 10.0107 147.204L10 147V144C10 142.964 10.7872 142.113 11.7959 142.011L12 142H137L137.204 142.011C138.213 142.113 139 142.964 139 144V147Z" fill="#161616"/>
<defs>
<clipPath id="clip0_77_3">
<rect width="96" height="96" fill="white" transform="translate(26 27)"/>
</clipPath>
<clipPath id="clip1_77_3">
<rect width="28" height="28" fill="white" transform="translate(117 31) rotate(90)"/>
</clipPath>
</defs>
</svg>
